<svg version="1.1" id="icons_1_" xmlns="http://www.w3.org/2000/svg" x="0" y="0" viewBox="0 0 128 128" xml:space="preserve"><style>.st0{display:none;fill:#fff}.st1{display:inline}.st1,.st2{fill:#fff}</style><g id="row2_1_" class="st0"><g id="_x36__3_" class="st1"><path class="st2" d="M64 .3C28.7.3 0 28.8 0 64s28.7 63.7 64 63.7 64-28.5 64-63.7S99.3.3 64 .3zm0 121C32.2 121.3 6.4 95.7 6.4 64 6.4 32.3 32.2 6.7 64 6.7c12.1 0 23.4 3.7 32.7 10.1 13.7 9.4 23.1 24.5 24.7 41.8 0 .5.1 9.8 0 10.7-2.7 29.2-27.4 52-57.4 52zm-3.2-89.1c-14.5 0-19.1 13.3-19.2 25.5h9.6c-.2-8.8.7-15.9 9.6-15.9 6.4 0 9.6 2.7 9.6 9.6 0 4.4-3.4 6.6-6.4 9.6-6.2 6-5.7 10.4-6 18.7h8.4c.3-7.5.2-7.3 6.4-13.9 4.2-4.1 7.1-8.2 7.1-14.5.1-10.1-5.3-19.1-19.1-19.1zm3.3 54.1c-3.6 0-6.4 2.9-6.4 6.4 0 3.5 2.9 6.4 6.4 6.4 3.6 0 6.4-2.9 6.4-6.4 0-3.6-2.9-6.4-6.4-6.4z" id="transparent"/></g><g id="_x35__3_" class="st1"><path class="st2" d="M64 .3C28.7.3 0 28.8 0 64s28.7 63.7 64 63.7 64-28.5 64-63.7S99.3.3 64 .3zm0 121C32.2 121.3 6.4 95.7 6.4 64 6.4 32.3 32.2 6.7 64 6.7s57.6 25.7 57.6 57.3c0 31.7-25.8 57.3-57.6 57.3zm21.7-63.2L70.4 70.3V41.7c0-2.2-2.3-3.2-4.4-3.2h-4c-2.2 0-3.9 1.8-3.9 3.9v28.4L42.3 58.1c-2.2 0-3.9 1.8-3.9 3.9v7.1L64 95.8l25.6-26.7V62c0-2.2-1.8-3.9-3.9-3.9z" id="down_1_"/></g><g id="_x34__3_" class="st1"><path class="st2" d="M64 .3C28.7.3 0 28.8 0 64s28.7 63.7 64 63.7 64-28.5 64-63.7S99.3.3 64 .3zm0 121C32.2 121.3 6.4 95.7 6.4 64 6.4 32.3 32.2 6.7 64 6.7s57.6 25.7 57.6 57.3c0 31.7-25.8 57.3-57.6 57.3zM38.4 58.9V66c0 2.2 1.8 3.9 3.9 3.9l15.3-12.2v28.7c0 2.2 2.3 3.2 4.4 3.2h4c2.2 0 3.9-1.8 3.9-3.9V57.2l15.8 12.7c2.2 0 3.9-1.8 3.9-3.9v-7.1L64 32.2 38.4 58.9z" id="up"/></g><g id="_x33__3_" class="st1"><path class="st2" d="M64 .3C28.8.3.3 28.8.3 64s28.5 63.7 63.7 63.7 63.7-28.5 63.7-63.7S99.2.3 64 .3zm0 121C32.3 121.3 6.7 95.7 6.7 64 6.7 32.3 32.3 6.7 64 6.7c31.7 0 57.3 25.7 57.3 57.3 0 31.7-25.6 57.3-57.3 57.3zm-2-82.8c-2.2 0-3.9 1.8-3.9 3.9l12.2 15.2H41.7c-2.2 0-3.2 2.2-3.2 4.4v4c0 2.2 1.8 3.9 3.9 3.9h28.4L58.1 85.6c0 2.2 1.8 3.9 3.9 3.9h7.1L95.8 64 69.1 38.5H62z" id="right_1_"/></g><g id="_x32__4_" class="st1"><path class="st2" d="M64 .3C28.7.3 0 28.8 0 64s28.7 63.7 64 63.7 64-28.5 64-63.7S99.3.3 64 .3zm0 121C32.2 121.3 6.4 95.7 6.4 64 6.4 32.3 32.2 6.7 64 6.7s57.6 25.7 57.6 57.3c0 31.7-25.8 57.3-57.6 57.3zm22.4-63.7H57.6l12.3-15.2c0-2.2-1.8-3.9-3.9-3.9h-7.1L32 64l26.8 25.5H66c2.2 0 3.9-1.8 3.9-3.9L57.1 69.9h28.6c2.2 0 3.9-1.8 3.9-3.9v-4c0-2.1-1-4.4-3.2-4.4z" id="left_1_"/></g><g id="_x31__4_" class="st1"><path class="st2" d="M64 .3C28.7.3 0 28.8 0 64s28.7 63.7 64 63.7 64-28.5 64-63.7S99.3.3 64 .3zm0 121C32.2 121.3 6.4 95.7 6.4 64 6.4 32.3 32.2 6.7 64 6.7s57.6 25.7 57.6 57.3c0 31.7-25.8 57.3-57.6 57.3zm1.3-82.8L41.6 64l23.6 25.5h13.5L54.4 64l24.4-25.5H65.3z" id="left_3_"/></g></g><g id="row1_1_"><g id="_x36__2_" class="st0"><g id="plus_transparent" class="st1"><path class="st2" d="M64 .3C28.7.3 0 28.8 0 64s28.7 63.7 64 63.7 64-28.5 64-63.7S99.3.3 64 .3zm0 121C32.2 121.3 6.4 95.7 6.4 64 6.4 32.3 32.2 6.7 64 6.7s57.6 25.7 57.6 57.3c0 31.7-25.8 57.3-57.6 57.3zm20.8-60.5H70.4V46.5c0-2.6-2.2-4.8-4.8-4.8-2.7 0-4.8 2.1-4.8 4.8v14.3H46.4c-2.7 0-4.8 2.1-4.8 4.8 0 2.6 2.1 4.8 4.8 4.8h14.4v14.3c0 2.6 2.1 4.8 4.8 4.8 2.6 0 4.8-2.1 4.8-4.8V70.4h14.4c2.6 0 4.8-2.1 4.8-4.8 0-2.6-2.1-4.8-4.8-4.8z"/></g></g><g id="_x35__2_" class="st0"><g id="error_transparent_copy" class="st1"><path class="st2" d="M64 .3C28.7.3 0 28.8 0 64s28.7 63.7 64 63.7 64-28.5 64-63.7S99.3.3 64 .3zm0 121C32.2 121.3 6.4 95.7 6.4 64 6.4 32.3 32.2 6.7 64 6.7s57.6 25.7 57.6 57.3c0 31.7-25.8 57.3-57.6 57.3zm23.2-76.8c-.9-.9-2.3-.9-3.2 0L55.2 73.2 41.4 59.5c-.9-.9-2.3-.9-3.2 0l-4.8 4.8c-.9.9-.9 2.3 0 3.2l15.3 15.3 3.3 3.3.8.8.7.7c.9.9 2.3.9 3.2 0L92 52.5c.9-.9.9-2.3 0-3.2l-4.8-4.8z"/></g></g><g id="_x34__2_" class="st0"><g id="error_transparent" class="st1"><path class="st2" d="M64 .3C28.7.3 0 28.8 0 64s28.7 63.7 64 63.7 64-28.5 64-63.7S99.3.3 64 .3zm0 121C32.2 121.3 6.4 95.7 6.4 64 6.4 32.3 32.2 6.7 64 6.7s57.6 25.7 57.6 57.3c0 31.7-25.8 57.3-57.6 57.3zm21.9-73.2L81 43.3c-.9-.9-2.3-.9-3.2 0L64 57 50.2 43.3c-.9-.9-2.3-.9-3.2 0l-4.9 4.8c-.9.9-.9 2.3 0 3.2L55.9 65 42.1 78.8c-.9.9-.9 2.3 0 3.2l4.9 4.8c.9.9 2.3.9 3.2 0L64 73.1l13.8 13.7c.9.9 2.3.9 3.2 0l4.9-4.8c.9-.9.9-2.3 0-3.2L72.1 65l13.8-13.7c.9-.9.9-2.3 0-3.2z"/></g></g><g id="_x33__2_" class="st0"><g id="alert_transparent" class="st1"><path class="st2" d="M64 32.2c-4.4 0-8 3.3-8 7.3v24.8c0 4.1 3.6 7.3 8 7.3s8-3.3 8-7.3V39.5c0-4.1-3.6-7.3-8-7.3zM64 .3C28.7.3 0 28.8 0 64s28.7 63.7 64 63.7 64-28.5 64-63.7S99.3.3 64 .3zm0 121C32.2 121.3 6.4 95.7 6.4 64 6.4 32.3 32.2 6.7 64 6.7s57.6 25.7 57.6 57.3c0 31.7-25.8 57.3-57.6 57.3zm0-40.1c-4.4 0-8 3.3-8 7.3s3.6 7.3 8 7.3 8-3.3 8-7.3-3.6-7.3-8-7.3z"/></g></g><g id="_x32__3_" class="st0"><g id="minus_transparent" class="st1"><path class="st2" d="M64 .3C28.7.3 0 28.8 0 64s28.7 63.7 64 63.7 64-28.5 64-63.7S99.3.3 64 .3zm0 121C32.2 121.3 6.4 95.7 6.4 64 6.4 32.3 32.2 6.7 64 6.7s57.6 25.7 57.6 57.3c0 31.7-25.8 57.3-57.6 57.3zm17.6-60.5H43.2c-2.7 0-4.8 2.1-4.8 4.8 0 2.6 2.2 4.8 4.8 4.8h38.4c2.6 0 4.8-2.1 4.8-4.8 0-2.6-2.1-4.8-4.8-4.8z"/></g></g><g id="_x31__3_"><path class="st2" d="M64 0C28.7 0 0 28.7 0 64s28.7 64 64 64 64-28.7 64-64S99.3 0 64 0zm0 121.6C32.2 121.6 6.4 95.8 6.4 64S32.2 6.4 64 6.4s57.6 25.8 57.6 57.6-25.8 57.6-57.6 57.6zM49.2 38.4L73.6 64 49.2 89.6h13.5L86.4 64 62.7 38.4H49.2z" id="_x32__2_"/></g></g></svg>