<svg xmlns="http://www.w3.org/2000/svg" width="2048" height="2048" shape-rendering="geometricPrecision" text-rendering="geometricPrecision" image-rendering="optimizeQuality" fill-rule="evenodd" clip-rule="evenodd"><defs><style>.fil0{fill:#f60;fill-rule:nonzero}</style></defs><g id="Layer_x0020_1"><g id="_287784384"><path id="_287784768" class="fil0" d="M628.568 542.612h790.867c23.341 0 44.536 9.527 59.88 24.872 15.347 15.345 24.872 36.54 24.872 59.882v793.27c0 23.34-9.525 44.536-24.871 59.88-15.345 15.346-36.54 24.872-59.881 24.872H628.568c-23.34 0-44.537-9.524-59.883-24.87-15.345-15.347-24.872-36.541-24.872-59.882v-793.27c0-23.34 9.527-44.537 24.872-59.882 15.345-15.346 36.543-24.872 59.883-24.872zm790.867 64.002H628.568c-5.674 0-10.857 2.344-14.633 6.12-3.775 3.775-6.12 8.958-6.12 14.632v793.27c0 5.672 2.344 10.855 6.12 14.631 3.775 3.775 8.959 6.12 14.633 6.12h790.867c5.673 0 10.854-2.345 14.63-6.121 3.776-3.776 6.12-8.958 6.12-14.63v-793.27c0-5.673-2.344-10.856-6.12-14.632-3.775-3.775-8.957-6.12-14.63-6.12z"/><path id="_287784504" class="fil0" d="M1485.49 915.172h22.4c17.674 0 32.002 14.328 32.002 32v153.655c0 17.673-14.328 32-32.001 32h-22.401c-17.673 0-32-14.327-32-32V947.173c0-17.673 14.327-32.001 32-32.001z"/><path id="_287785128" class="fil0" d="M540.113 915.172h22.4c17.674 0 32.002 14.328 32.002 32v153.655c0 17.673-14.328 32-32.001 32h-22.401c-17.673 0-32-14.327-32-32V947.173c0-17.673 14.327-32.001 32-32.001z"/><path id="_287785104" class="fil0" d="M640.77 543.611c-17.12 4.28-27.53 21.63-23.25 38.75 4.28 17.12 21.63 27.531 38.75 23.25 85.39-21.332 94.983-92.133 104.722-164.024 8.433-62.258 17.031-125.705 110.213-121.421l-.005.093a32.3 32.3 0 001.487.034v.002h302.625c1.223 0 2.43-.073 3.618-.206 91.165-3.214 99.71 59.721 108.077 121.498 9.74 71.89 19.333 142.691 104.721 164.025 17.12 4.28 34.47-6.13 38.751-23.25 4.28-17.12-6.13-34.47-23.25-38.75-43.47-10.861-50.17-60.313-56.971-110.524-12.253-90.449-24.765-182.597-173.668-176.767-.424-.016-.85-.027-1.278-.027H872.688v.074c-150.118-6.412-162.658 86.012-174.946 176.72-6.802 50.212-13.503 99.663-56.972 110.523z"/><path id="_287785200" class="fil0" d="M656.274 1442.39c-17.12-4.28-34.47 6.13-38.75 23.25-4.281 17.12 6.13 34.47 23.25 38.75 43.467 10.861 50.169 60.312 56.97 110.523 12.288 90.709 24.828 183.134 174.947 176.72v.075h302.623c.428 0 .854-.01 1.278-.027 148.904 5.83 161.415-86.319 173.668-176.767 6.802-50.211 13.502-99.663 56.971-110.523 17.12-4.28 27.53-21.63 23.25-38.75-4.28-17.12-21.63-27.531-38.75-23.25-85.39 21.332-94.982 92.134-104.721 164.024-8.369 61.777-16.913 124.712-108.077 121.498a32.403 32.403 0 00-3.62-.205H872.69c-.492.002-.988.012-1.487.035l.005.093c-93.183 4.284-101.782-59.163-110.215-121.422-9.738-71.89-19.332-142.69-104.72-164.023z"/><path id="_287784912" class="fil0" d="M1056 736.002c0-17.673-14.328-32-32-32-17.674 0-32.002 14.327-32.002 32v288c0 17.673 14.328 32 32.001 32s32.001-14.327 32.001-32v-288z"/><path id="_287784816" class="fil0" d="M1056 574.613c0-17.673-14.328-32-32-32-17.674 0-32.002 14.327-32.002 32v51.689c0 17.672 14.328 32 32.001 32s32.001-14.328 32.001-32v-51.689z"/><path id="_287785176" class="fil0" d="M1056 1421.7c0-17.673-14.328-32-32-32-17.674 0-32.002 14.327-32.002 32v51.689c0 17.672 14.328 32 32.001 32s32.001-14.328 32.001-32V1421.7z"/><path id="_287783952" class="fil0" d="M1056 574.613c0-17.673-14.328-32-32-32-17.674 0-32.002 14.327-32.002 32v51.689c0 17.672 14.328 32 32.001 32s32.001-14.328 32.001-32v-51.689z"/><path id="_287784336" class="fil0" d="M1056 1421.7c0-17.673-14.328-32-32-32-17.674 0-32.002 14.327-32.002 32v51.689c0 17.672 14.328 32 32.001 32s32.001-14.328 32.001-32V1421.7z"/><path id="_287784216" class="fil0" d="M1473.39 1056c17.673 0 32-14.328 32-32 0-17.674-14.327-32.002-32-32.002h-51.689c-17.672 0-32 14.328-32 32.001s14.328 32.001 32 32.001h51.689z"/><path id="_287783760" class="fil0" d="M626.301 1056c17.673 0 32-14.328 32-32 0-17.674-14.327-32.002-32-32.002h-51.689c-17.672 0-32 14.328-32 32.001s14.328 32.001 32 32.001h51.689z"/><path id="_287783808" class="fil0" d="M1280 1056c17.673 0 32-14.328 32-32 0-17.674-14.327-32.002-32-32.002h-256.001c-17.673 0-32 14.328-32 32.001s14.327 32.001 32 32.001H1280z"/></g></g><path fill="none" d="M0 0h2048v2048H0z"/></svg>