<svg fill="rgba(255, 255, 255, 0.5)" viewBox="0 0 512 512" xmlns="http://www.w3.org/2000/svg"><path d="M395.6 425.7c4.1 0 7.5-3.4 7.5-7.5V175.5c0-2-.8-3.9-2.1-5.2l-69.9-81.1-.1-.1-.1-.1c-.2-.3-.5-.5-.7-.7l-.1-.1c-.3-.2-.5-.4-.8-.6l-.1-.1c-.6-.4-1.2-.6-1.9-.8h-.1c-.6-.1-1.2-.2-1.8-.2h-209c-4.1 0-7.5 3.4-7.5 7.5v324.4c0 4.1 3.4 7.5 7.5 7.5h279.2zM332.9 114l46.4 53.9h-46.4V114zm-209-12.7h194v74.1c0 4.1 3.4 7.5 7.5 7.5h62.8v227.7H123.9V101.3z"/><path d="M183.8 265.1c-21.1 0-38.2 17.1-38.2 38.2 0 9.3 3.3 17.8 8.9 24.4v55.4c0 2.8 1.6 5.4 4.1 6.7 2.5 1.3 5.5 1.1 7.8-.6l17.5-12.5 17.4 12.5c1.3.9 2.8 1.4 4.4 1.4 1.2 0 2.3-.3 3.4-.8 2.5-1.3 4.1-3.9 4.1-6.7v-55.4c5.5-6.6 8.9-15.1 8.9-24.4-.1-21-17.2-38.2-38.3-38.2zm0 15c12.8 0 23.2 10.4 23.2 23.2s-10.4 23.2-23.2 23.2c-6.4 0-12.3-2.6-16.5-6.9l-.1-.1c-4.1-4.2-6.6-9.9-6.6-16.2 0-12.8 10.4-23.2 23.2-23.2zm4.4 81.2c-2.6-1.9-6.1-1.9-8.8 0l-10 7.2v-29.8c4.4 1.8 9.3 2.8 14.3 2.8 5.1 0 9.9-1 14.3-2.8v29.8l-9.8-7.2zm-32.3-214.8h27.9c4.1 0 7.5-3.4 7.5-7.5s-3.4-7.5-7.5-7.5h-27.9c-4.1 0-7.5 3.4-7.5 7.5s3.4 7.5 7.5 7.5zm107.8 17H155.9c-4.1 0-7.5 3.4-7.5 7.5s3.4 7.5 7.5 7.5h107.8c4.1 0 7.5-3.4 7.5-7.5s-3.4-7.5-7.5-7.5zm0 32.1H155.9c-4.1 0-7.5 3.4-7.5 7.5s3.4 7.5 7.5 7.5h107.8c4.1 0 7.5-3.4 7.5-7.5s-3.4-7.5-7.5-7.5z"/></svg>