<svg fill="rgba(255, 255, 255, 0.5)" xmlns="http://www.w3.org/2000/svg" width="800" height="800" viewBox="0 0 32 32"><path d="M28.918 15.952a1.273 1.273 0 00-.592-.902.746.746 0 00-.697-.042c-.003-.816 0-1.632-.021-2.447-.021-.915.029-1.829.063-2.742.012-.301-.181-.561-.44-.689a50.504 50.504 0 00-.077-1.031c-.019-.205-.036-.41-.065-.613l-.017-.12c-.015-.106-.063-.289-.123-.37-.087-.114-.161-.241-.296-.306-.099-.047-.194-.093-.302-.108-.105-.016-.213-.016-.319-.028a42.786 42.786 0 01-.056-1.011.694.694 0 00.059-.279.73.73 0 00-.72-.722c-.805-.006-1.61.006-2.415-.028-.724-.03-1.447-.072-2.174-.087-1.527-.028-3.057-.017-4.586-.028-1.5-.01-2.998-.04-4.501-.044-.733-.001-1.466-.015-2.198-.015-.706 0-1.413.013-2.118.062a6.99 6.99 0 00-2.282.545c-.699.302-1.327.904-1.544 1.646-.059.203-.089.41-.116.621a2.092 2.092 0 00-.023.518c.025.215.06.423.117.629a.726.726 0 00-.403.636c-.01.798-.006 1.595-.021 2.391-.013.724-.03 1.447-.038 2.169a188.518 188.518 0 000 4.385c.015 1.016.038 2.032.042 3.048.006 1.02.019 2.041-.004 3.063a.641.641 0 00.104.345c.151.39.309.782.514 1.146.084.148.19.285.292.422.095.125.192.249.289.372.148.188.37.336.568.463.442.289.957.473 1.476.564.45.078.904.154 1.36.182.828.049 1.66.055 2.491.07.79.013 1.58.028 2.368.027.805 0 1.608-.009 2.412-.004.807.008 1.612.032 2.419.015.832-.015 1.662-.049 2.493-.061.799-.013 1.603-.009 2.402-.009.763 0 1.527 0 2.288-.01.357-.004.714 0 1.073.004.376.004.752.008 1.13.002a.828.828 0 00.633-.319.726.726 0 00.325-.6c-.017-.86-.008-1.72-.017-2.581-.013-.988.002-1.974.019-2.961a1.24 1.24 0 00.646-.27c.439-.368.543-.999.589-1.538.029-.334.029-.67.042-1.006.021-.513.046-1.031.028-1.546-.01-.27-.041-.54-.077-.808zM7.703 8.835c.003-.073.007-.147-.009-.222l-.011-.058c-.02-.306-.01-.614-.007-.922 1.463.042 2.927.043 4.392.05.754.004 1.508.023 2.262.042.699.019 1.396.07 2.095.093.727.025 1.456.036 2.186.051.729.015 1.46.03 2.189.036.742.006 1.485.013 2.226.015.653.002 1.307.03 1.96.034.242.001.483.01.723.028.04.353.066.707.077 1.063-.389.008-.779.004-1.166 0-.727-.01-1.455-.032-2.182-.036-1.46-.008-2.917-.057-4.377-.068-1.553-.011-3.105.002-4.658-.053-.999-.034-2-.032-2.998-.03-.534 0-1.067.002-1.599-.004-.368-.005-.736-.01-1.103-.019zm19.715 10.739l.005-.005a.012.012 0 01-.005.005zm-.194-3.149a.639.639 0 00.152-.007c.03.439.025.879.017 1.32l-.015.839c-.003.273.001.546-.024.817a2.409 2.409 0 01-.043.187c-.277.014-.557.005-.833-.002a42.345 42.345 0 00-1.008-.011c-.745 0-1.493.002-2.232-.082a3.814 3.814 0 01-.657-.176 3.802 3.802 0 01-.603-.358 3.21 3.21 0 01-.207-.197 2.39 2.39 0 01-.109-.19 3.024 3.024 0 01-.093-.288 3.671 3.671 0 01.015-.663c.04-.238.089-.474.171-.702.027-.053.056-.103.087-.152.038-.038.076-.075.116-.109.076-.047.154-.09.235-.13a3.67 3.67 0 01.605-.162c.325-.033.649-.04.976-.048.349-.01.699-.023 1.048-.023.802-.004 1.605.076 2.402.137zM4.895 7.3c.023-.124.051-.245.091-.364.028-.056.059-.109.092-.161.087-.098.18-.19.279-.276.127-.087.259-.159.399-.226a7.153 7.153 0 011.474-.37 20.635 20.635 0 012.049-.111c.725-.004 1.451-.011 2.176-.013.676 0 1.352.004 2.03.008.811.004 1.624.009 2.436.004 1.523-.009 3.046-.013 4.569.017.729.015 1.456.03 2.186.078.601.042 1.203.056 1.805.072.014.177.026.355.046.533-.067 0-.134-.002-.201-.001-1.424.009-2.848.03-4.273.009-.754-.009-1.508-.025-2.26-.049-.712-.021-1.422-.027-2.133-.055-.727-.029-1.453-.059-2.18-.068-.727-.011-1.455-.01-2.182-.019-1.356-.021-2.712-.07-4.066-.127l-.027-.001c-.35 0-.631.296-.678.631a.742.742 0 00-.36.623c.002.44.01.883.066 1.321-.03-.006-.062-.005-.094-.009a4.203 4.203 0 01-.685-.149 2 2 0 01-.208-.124 1.203 1.203 0 01-.101-.101 2.363 2.363 0 01-.141-.268 2.683 2.683 0 01-.118-.402 2.455 2.455 0 01.009-.402zM24.46 25.97c-.777.019-1.555.017-2.332.034-1.662.032-3.323.089-4.987.101-.771.004-1.544.021-2.315.015-.82-.004-1.639-.015-2.457-.017-.773-.002-1.546.008-2.319.011-.832.002-1.669.006-2.497-.076l-.198-.02c-.451-.064-.905-.144-1.331-.302a3.977 3.977 0 01-.49-.284 2.672 2.672 0 01-.294-.308 5.502 5.502 0 01-.231-.328 3.077 3.077 0 01-.201-.402c-.069-.17-.135-.342-.2-.515a1.096 1.096 0 00-.148-.275c-.01-1.288-.01-2.575-.027-3.861-.011-.714-.025-1.43-.034-2.144-.011-.733-.002-1.468-.004-2.201 0-1.049-.002-2.098.025-3.148.02-.816.045-1.631.067-2.447.048.03.095.063.143.09.399.22.845.275 1.289.329.372.046.746.066 1.122.08.746.027 1.495.017 2.243.017.788 0 1.574-.009 2.362-.013.775-.006 1.546.03 2.32.055.746.023 1.493.023 2.241.023.775-.002 1.551-.008 2.326-.006.76.002 1.519.047 2.277.093 1.424.084 2.854.089 4.28.106.337.004.679 0 1.02-.014-.021 1.427-.002 2.855.004 4.282-.467-.022-.934-.055-1.402-.06-.359-.004-.718-.015-1.075-.021l-.107-.001c-.398 0-.791.038-1.186.09a3.285 3.285 0 00-1.234.46c-.275.169-.469.395-.663.648-.122.159-.194.384-.262.566-.074.196-.114.406-.154.612-.103.528-.152 1.063-.042 1.595.027.133.08.262.129.389a2.6 2.6 0 00.515.832c.18.201.422.357.642.511.142.099.298.18.456.253.224.101.456.207.697.266.427.106.873.141 1.312.165.492.027.987.023 1.483.019.209-.002.42-.004.63-.004l.263.002c-.011 1.592.04 3.183.053 4.774-.569.006-1.139.016-1.709.029zm-.328-8.105a.798.798 0 01-.791.791.798.798 0 01-.791-.791c0-.431.359-.791.791-.791.431 0 .791.36.791.791z" fill="rgba(255,255,255,.5)"/></svg>